/* XPM */
static char *_1cd908387204589fc74bfc908c89dd31J9Dq0lUygxl5GCA[] = {
/* columns rows colors chars-per-pixel */
"40 38 195 2 ",
"   c #4C0201",
".  c #510100",
"X  c #673201",
"o  c #714701",
"O  c #784C01",
"+  c #724B10",
"@  c #7A571E",
"#  c #75512B",
"$  c #724E31",
"%  c #795836",
"&  c #6F4F43",
"*  c #755643",
"=  c #7A5D4B",
"-  c #7D6149",
";  c #815A00",
":  c #886401",
">  c #8C6A01",
",  c #927201",
"<  c #997A05",
"1  c #8C6C11",
"2  c #8F7013",
"3  c #91732E",
"4  c #977B37",
"5  c #856844",
"6  c #967A41",
"7  c #806653",
"8  c #8F785C",
"9  c #967B51",
"0  c #836C67",
"q  c #8F7865",
"w  c #907A65",
"e  c #857271",
"r  c #8C7A73",
"t  c #907F79",
"y  c #9D8200",
"u  c #9F8516",
"i  c #9F832B",
"p  c #9F833A",
"a  c #A48A28",
"s  c #AC912F",
"d  c #A38A3A",
"f  c #AB913F",
"g  c #B1983D",
"h  c #9E8441",
"j  c #9C8459",
"k  c #A28947",
"l  c #A98F46",
"z  c #AD9445",
"x  c #B49B43",
"c  c #B69F4C",
"v  c #A58D53",
"b  c #AA9556",
"n  c #B49D55",
"m  c #BCA44D",
"M  c #BDA652",
"N  c #BFA854",
"B  c #B9A75C",
"V  c #9A8568",
"C  c #9D856A",
"Z  c #93837F",
"A  c #A28B66",
"S  c #A8926C",
"D  c #A18E76",
"F  c #A5937B",
"G  c #B39F75",
"H  c #BAA563",
"J  c #B0A078",
"K  c #C3AD55",
"L  c #C6B35A",
"P  c #CAB55C",
"I  c #CAB95C",
"U  c #CBB762",
"Y  c #CEBB62",
"T  c #CBBF68",
"R  c #D2BE65",
"E  c #D2BF68",
"W  c #C7BF7A",
"Q  c #BFD370",
"!  c #D4C365",
"~  c #D7C766",
"^  c #D3C36A",
"/  c #D7C868",
"(  c #DCCC6D",
")  c #DED26E",
"_  c #C6CE76",
"`  c #CBCA7A",
"'  c #D4C573",
"]  c #DBCD77",
"[  c #D3CA7D",
"{  c #C0D470",
"}  c #C4D77A",
"|  c #C6D87D",
" . c #DFD373",
".. c #E5D672",
"X. c #E5DA73",
"o. c #E9DE77",
"O. c #E5DC7A",
"+. c #EAE076",
"@. c #EDE47A",
"#. c #F1E97C",
"$. c #9A8C85",
"%. c #9A8D8B",
"&. c #9E928D",
"*. c #AC9B82",
"=. c #A5988F",
"-. c #A49994",
";. c #A59A95",
":. c #B8A786",
">. c #AEA193",
",. c #ADA39D",
"<. c #B7AB96",
"1. c #B2A69A",
"2. c #B9AC9B",
"3. c #BDB39F",
"4. c #AFA5A2",
"5. c #B5ACA5",
"6. c #BDB1A1",
"7. c #BDB7AE",
"8. c #BFB9AF",
"9. c #C3B58B",
"0. c #D8BE86",
"q. c #CABB93",
"w. c #C3B9A7",
"e. c #C5BDB2",
"r. c #D2C585",
"t. c #C7D980",
"y. c #CADA85",
"u. c #CCDC8B",
"i. c #CEC49D",
"p. c #CFDE93",
"a. c #D1DF97",
"s. c #D1DF99",
"d. c #E1D581",
"f. c #EEC895",
"g. c #D1E096",
"h. c #D4E29C",
"j. c #EDE887",
"k. c #EBE996",
"l. c #EDEC9C",
"z. c #F2ED92",
"x. c #F5F39B",
"c. c #D4CCA3",
"v. c #CAC2B6",
"b. c #C8C4B8",
"n. c #CBC9BD",
"m. c #D3CDBD",
"M. c #D8DEB7",
"N. c #D4D3BE",
"B. c #D9D5BE",
"V. c #D7DBBB",
"C. c #D9DCBD",
"Z. c #D7E4A2",
"A. c #D9E5A4",
"S. c #D7E2A9",
"D. c #DAE5AB",
"F. c #DDE8AE",
"G. c #DAE2B3",
"H. c #DEE9B3",
"J. c #DEE6BA",
"K. c #E1EBB7",
"L. c #E3ECBC",
"P. c #CECAC1",
"I. c #D2CFC5",
"U. c #DAD4C3",
"Y. c #DBD7CB",
"T. c #DEDAD0",
"R. c #E3DFCB",
"E. c #E1DED3",
"W. c #DFE4C0",
"Q. c #DEE1C8",
"!. c #E1E6C6",
"~. c #E5EDC3",
"^. c #E7ECCB",
"/. c #E9EECD",
"(. c #E9F0CC",
"). c #E5E2D4",
"_. c #EBE5D3",
"`. c #E6E8D5",
"'. c #ECEDD5",
"]. c #E8E5DA",
"[. c #ECE9DB",
"{. c #F1ECDB",
"}. c #EDF3D3",
"|. c #EFF5D9",
" X c #F2F6DD",
".X c #F8F2DC",
"XX c #F4F8DE",
"oX c #F0EFE2",
"OX c #F4F4E5",
"+X c #F6F9E6",
"@X c #F6F6E9",
"#X c #F7FAE8",
"$X c #FBFBED",
"%X c #FEFFF3",
"&X c #FFFFFC",
/* pixels */
"{ { { { { { { { { { { { { { { { { { { { { { { { { { { { { { { { { { Q { { { { { ",
"{ { { { { { { { { { { { { { { { { { { { { { { { { } } | | | | | } { { { { { { { ",
"{ { { { { { { { { { { { { { { { { { { { { Q { { { t.D.~.L.K.L.L.Z.} { { { { { { ",
"{ { { { { { { { { { { { { { { { { { { { { { { { { p./.%X$XOX%X%X~.u.{ { { { { { ",
"{ { { { { { { { { { { { { { { { { { { { { { { t.h.G.U.{._.).[.[.B.D.g.| { { { { ",
"{ { { { { { { { { { { { { { { { { { { Q { { { Z.|.).<.C D D C C 6.).}.g.{ { { { ",
"{ { { { { { { { { { { { { { { { { { { { { } u.J.[._.G , < d y y 9..X].G.y.} { { ",
"{ { { { { { { { { { { { { { { { { { { { } D./.N.2.:.H K I ! ~ ~ ' q.w.B.~.Z.} { ",
"{ { { { { { { { { { { { { { { { { { { { u.^.$XU.j a P ( X.@.#.@.~ u V _.$XL.| { ",
"{ { { { { { { { { { { { { { { { { { | Z.J.N.B.c.W T ^ ( o.#.#.o.I , q _.%X~.| { ",
"{ { { { { { { { { { { { { { { { { { g.|.oX6.j W l.k.] ~ ..@.X.( B 3 r T.OXL.| { ",
"{ { { { { { { { { { { { { { { { | g.G.R._.:.a ^ x.z.' I / ) ( R n @ e E.$XL.| { ",
"{ { { { { { { { { { { { { { { { Z.}.T.1.S H U  .j.O.Y N K P I P z o 0 ].&X~.| { ",
"{ { { { { { { { { { { { { { { u.J.OX'.J a K / ..+.) I M N N m c b V =.I.'.F.} { ",
"{ { { { { { { { { { { { { } A.~.N.w.i.r.[ ' / ..@...^ U R Y g 1 F U.Y.M.h.y.} { ",
"{ { { { { { { { { { { { { u.(.$Xm.9 B k.x.d.^ ( o.X./ E / E b = ;.oXXXZ.{ { { { ",
"{ { { { { { { { { { { y.g.G.U.R.q.z I j.z.] P Y / / ^ P m b :.e.n.W.F.y.{ { { Q ",
"{ { { { { { { { { { { h.}.).3.A n U ( @.O.^ N M K L P M 2 - v.$X/.a.{ { { { { { ",
"{ { { { { { { { { { { A.+X%X<.; s ^ ..+...^ K K K m x b D ;.n.}.H.| { { { { { { ",
"{ { { { Q { { { { { { Z. X#X1.% l ^ ..@.+.( Y R ! m > w U.[.W.g.| { { { { { { { ",
"{ { { { { { { { { { { h. XOX,.* k Y ) X.X.( E R R H 8 %.Y.XXF.{ { { { { { { { { ",
"r.[ _ { { { { Q { { { h.XX$X4.& h P ! ~ ~ ! P x d :.m.I.C.A.u.{ { { { { { { { { ",
"f.0.` { { { { { { { { h. X@X4.* 4 N K K K K N 4 % ,.@X XZ.{ { { { { { { { { { { ",
"0.r.` Q { { { { { y.h.G.I.b.*.6 4 k d p p i k *.5.b.!.H.y.{ { { { { { { { { { { ",
"_ _ { { { { { { { D. XY.;.q v f 4 % $ % # X 5 v.$X^.s.} { { { { { { { { { { { { ",
"{ { { { { { { } p.W.OXY.w O < z S $.%.%.$.Z &.n.|.K.| { { { { { { { { { { { { { ",
"{ { { { { { } F./.m.5.*.v < ; 5 6.).oX[.[.OX).M.h.y.{ { { { { { { { { { { { { { ",
"{ { { { { { p.(.$Xv.= ; f l 5 r b.OX$X+XOX%X XD.{ { { { { { { { { { { { { { { { ",
"{ { { { y.Z.G.N.m.:.4 : > A w.P.V.H.F.H.H.K.F.u.{ { { { { { { { { { { { { { { { ",
"{ { { { Z.|.].,.7 6 z 3 o $.[.OXH.| { } } } } } { { { { { { { { { { { { { { { { ",
"{ { { { D.#X%X;.. O i S >.7.Q.~.a.{ { { { { { { { { { { { { { { { { { { { { { { ",
"{ { { { A.OXOX=..   + 2.OX`.S.y.} { Q Q { { { { { { { { { { { { { { { { { { { { ",
"{ { { { Z. X#X7.r 0 t 8.[.(.u.{ { { Q { { { { { { { { { { { { { { { { { { { { { ",
"{ { { { Z.OX&XOXE.].).B.D.p.} { { { { { { { { { { { { { { { { { { { { { { { { { ",
"{ { { { h.'.%X@XOX%X@XK.t.{ { { { { { { { { { { { { { { { { { { { { { { { { { { ",
"{ { { { u.S.K.L.L.L.L.h.{ { { { { { { { { { { { { { { { { { { { { { { { { { { { ",
"{ { { { } } | | | | | } { { { { { { { { { { { { { { { { { { { { { { { { { { { { ",
"{ { { { { { { { { { { { { { { { { { { { { { { { { { { { { { { { { { { { { { { { "
};
