/* XPM */
static char *_649e12292f44d17f07cdce693f47bfcEYQx6BvXJix2xZox[] = {
/* columns rows colors chars-per-pixel */
"40 40 185 2 ",
"   c #7F4C57",
".  c #774B5E",
"X  c #7A4E5E",
"o  c #7E525D",
"O  c #794C61",
"+  c #7C5661",
"@  c #7E5D63",
"#  c #7E6064",
"$  c #8F5A51",
"%  c #8C5D5C",
"&  c #85575C",
"*  c #925F54",
"=  c #94744C",
"-  c #8E615E",
";  c #8F6B5B",
":  c #91635D",
">  c #976C5F",
",  c #9B6B5A",
"<  c #966456",
"1  c #95745D",
"2  c #A0784E",
"3  c #A2745D",
"4  c #A7785B",
"5  c #AD7E5C",
"6  c #815761",
"7  c #845C61",
"8  c #816164",
"9  c #846B65",
"0  c #8F6865",
"q  c #936760",
"w  c #956C62",
"e  c #996F65",
"r  c #867569",
"t  c #887B65",
"y  c #9C7364",
"u  c #9C7B62",
"i  c #A67666",
"p  c #A57C65",
"a  c #A97E64",
"s  c #A37469",
"d  c #A47A6B",
"f  c #AA7E6C",
"g  c #619E4E",
"h  c #679C53",
"j  c #759F57",
"k  c #7E9E53",
"l  c #759F58",
"z  c #789F58",
"x  c #6FA559",
"c  c #6BA151",
"v  c #76A157",
"b  c #7BA458",
"n  c #79A65A",
"m  c #93924A",
"M  c #998E5A",
"N  c #AD875D",
"B  c #B3845E",
"V  c #B88A5D",
"C  c #A99559",
"Z  c #81A55B",
"A  c #89AF5C",
"S  c #8CB35B",
"D  c #93B55E",
"F  c #96BC5D",
"G  c #9FB35B",
"H  c #B5AD5F",
"J  c #A7B25B",
"K  c #A0BD5E",
"L  c #A5A85A",
"P  c #8E846B",
"I  c #9A8160",
"U  c #9F8E61",
"Y  c #978D69",
"T  c #9A926A",
"R  c #9E9C6B",
"E  c #9B9A67",
"W  c #AC8364",
"Q  c #A18F62",
"!  c #AD846E",
"~  c #A38E68",
"^  c #AB8F6B",
"/  c #B88765",
"(  c #B38A62",
")  c #BA8D64",
"_  c #B48A6C",
"`  c #BA8C6D",
"'  c #B08564",
"]  c #A69766",
"[  c #A79E64",
"{  c #A19B6B",
"}  c #BE9266",
"|  c #BD946A",
" . c #B49A6C",
".. c #AF8470",
"X. c #B08571",
"o. c #B58D75",
"O. c #B79276",
"+. c #BC9372",
"@. c #BF9976",
"#. c #87A464",
"$. c #89A365",
"%. c #81AA65",
"&. c #90A662",
"*. c #9DA56A",
"=. c #98B761",
"-. c #9CBB61",
";. c #A5A76E",
":. c #AFA369",
">. c #ADAB68",
",. c #A2AB6B",
"<. c #A2BE64",
"1. c #AFB068",
"2. c #A5BC6B",
"3. c #ABBE6D",
"4. c #B7BA63",
"5. c #B7BF6C",
"6. c #B3B46B",
"7. c #B1AA74",
"8. c #B1BE72",
"9. c #BBB178",
"0. c #C19566",
"q. c #C19669",
"w. c #C59B6C",
"e. c #C99E6D",
"r. c #C09170",
"t. c #C99E73",
"y. c #C69E7D",
"u. c #CCA26E",
"i. c #CFA570",
"p. c #CDA87F",
"a. c #C9A47B",
"s. c #D1AC7F",
"d. c #D2A971",
"f. c #D8B17D",
"g. c #9FC766",
"h. c #A3C163",
"j. c #ABC667",
"k. c #AEC967",
"l. c #AEC76D",
"z. c #ADCA6C",
"x. c #B1C669",
"c. c #B3CB6A",
"v. c #B9CF6C",
"b. c #B5C767",
"n. c #B1D06B",
"m. c #BED16E",
"M. c #AFC473",
"N. c #B3C473",
"B. c #B8C772",
"V. c #B5CC73",
"C. c #B9CC72",
"Z. c #BED271",
"A. c #C0D16F",
"S. c #C0D470",
"D. c #C8DB74",
"F. c #C89F81",
"G. c #CDA482",
"H. c #CAAB84",
"J. c #D3AB84",
"K. c #D6AE8A",
"L. c #CBB582",
"P. c #D5B383",
"I. c #DDB683",
"U. c #DDB885",
"Y. c #DBB78A",
"T. c #DCBC8A",
"R. c #D3BA86",
"E. c #D8B896",
"W. c #E2BC8B",
"Q. c #E0BA84",
"!. c #E1BF90",
"~. c #E9BF91",
"^. c #E3C08F",
"/. c #E2C194",
"(. c #EBC492",
"). c #E0C29F",
"_. c #E5CAA2",
"`. c #E7CFAA",
"'. c #EAD3AC",
"]. c #EEDAB5",
"[. c #EDDCB9",
"{. c #F2DDB6",
"}. c #F3E3BD",
"|. c #F6E6C0",
" X c #F7EAC5",
/* pixels */
"S.S.S.S.S.S.S.S.S.S.Z.m.S.S.S.1.x.] f y y f ] x.1.S.S.S.m.Z.S.S.S.S.S.S.S.S.S.S.",
"S.S.S.S.S.S.S.S.Z.m.S.S.5.Q [ X.! J.(.W.W.(.J.! X.[ Q 5.S.S.m.Z.S.S.S.S.S.S.S.S.",
"S.S.S.S.S.S.m.S.S.S.U 1 ^ J.y.(.(.L.;.7.7.;.L.(.(.y.J.^ 1 U S.S.S.m.S.S.S.S.S.S.",
"S.S.S.S.S.S.S.>.1 I J.K.Y.(.^.*.*.2.F S S F 2.*.*.^.(.Y.K.J.I 1 >.S.S.S.S.S.S.S.",
"S.S.S.S.Z.u ; O.(.W.T.^.9.Z &.F c <.v.h.h.v.<.c F &.Z 9.^.T.W.(.O.; u Z.S.S.S.S.",
"S.S.S.S.u /.~.T.R.P.Z Z h j.S.h.Z D -.S S -.D Z h.S.j.h Z Z P.R.T.~./.u S.S.S.S.",
"S.S.m.S.> P.L.,.g A k.h.b h.m.h.b <.m.h.h.m.<.b h.m.h.b h.k.A g ,.L.P.> S.m.S.S.",
"S.S.Z.S.:.W g D b Z.D.-.b <.c.h.b =.h.D D h.=.b h.c.<.b -.D.Z.b D g W :.S.Z.S.S.",
"S.S.S.Z.S.E $.h.l h.k.<.v x.D.h.b -.j.=.=.j.-.b h.D.x.v <.k.h.l h.$.E S.Z.S.S.S.",
"S.S.S.Z.S.l.#.h.j c.m.-.b =.k.h.n <.b.K K b.<.n h.k.=.b -.m.c.j h.#.l.S.Z.S.S.S.",
"S.S.S.Z.S.2.#.h.j c.m.-.v z.D.G k M / ( ( / M k G D.z.v -.m.c.j h.#.2.S.Z.S.S.S.",
"S.S.S.Z.S.2.#.h.z <.n.g.k L 4.+./ E.}.{.{.}.E./ +.4.L k g.n.<.z h.#.2.S.Z.S.S.S.",
"S.S.S.Z.S.3.$.h.x Z.H m  .G.F.}.|.].`.'.'.`.].|.}.F.G. .m H Z.x h.$.3.S.Z.S.S.S.",
"S.S.S.Z.S.3.%.J = C E.K.`. X}._._./.I.U.U.I./._._.}. X`.K.E.C = J %.3.S.Z.S.S.S.",
"S.S.S.S.A.N 2 H._.).}. X'././.P.U.@.e d d e @.U.P././.'. X}.)._.H.2 N A.S.S.S.S.",
"S.S.S.S.( {.'.].}.}.!.^.Y.s.J.q q : % % % % : q q J.s.Y.^.!.}.}.].'.{.( S.S.S.S.",
"S.S.S.S.W {.[._.Q.W.a.G.!   % % % - - - - - - % % %   ! G.a.W.Q._.[.{.W S.S.S.S.",
"S.S.m.S.w W.W.p.o.O.* $ < , , , , , , , , , , , , , , < $ * O.o.p.W.W.w S.m.S.S.",
"S.S.S.S.6.o.o.a 5 ' 0.q.} } } } } } } } } } } } } } } } q.0.' 5 a o.o.6.S.S.S.S.",
"S.S.S.Z.S.b.t f u.w.w.w.w.w.w.w.w.w.w.w.w.w.w.w.w.w.w.w.w.w.w.u.f t b.S.Z.S.S.S.",
"S.S.S.S.Z.S.;.s B 5 5 5 5 5 5 5 5 5 5 5 5 5 5 5 5 5 5 5 5 5 5 B s ;.S.Z.S.S.S.S.",
"S.S.S.S.m.S.T ..u.w.u.u.w.w.w.w.w.w.w.w.w.w.w.w.w.w.w.w.u.u.w.u...T S.m.S.S.S.S.",
"S.S.S.S.m.S.T X.u.w.p y ` u.w.w.w.e.e.e.e.e.e.w.w.w.u.` y p w.u.X.T S.m.S.S.S.S.",
"S.S.S.S.m.S.R s V e o X 7 a B B B p 0 w w 0 p B B B a 7 X o e V s R S.m.S.S.S.S.",
"S.S.S.S.m.S.T f e.+ % > . a q.q.W . % & & % . W q.q.a . > % + e.f T S.m.S.S.S.S.",
"S.S.S.S.m.S.T X.d.7 : , X _ i.| X : : : : : : X | i._ X , : 7 d.X.T S.m.S.S.S.S.",
"S.S.S.S.m.S.R d 0.- a.f.! 3 0.W X : - : : - : X W 0.3 ! f.a.- 0.d R S.m.S.S.S.S.",
"S.S.S.S.m.S.R d ) ) s.P.t.B ( W X : : : : : : X W ( B t.P.s.) ) d R S.m.S.S.S.S.",
"S.S.S.S.Z.S.T X.u.w.q.0.w.e.u.| . : % - - % : . | u.e.w.0.q.w.u.X.T S.Z.S.S.S.S.",
"S.S.S.S.m.S.T ! e.q.w.w.w.w.e.| O 3 4 4 4 4 3 O | e.w.w.w.w.q.e.! T S.m.S.S.S.S.",
"S.S.S.S.S.Z.S.R + + 7 6 + 8 8 # - ) w.q.q.w.) - # 8 8 + 6 7 + + R S.Z.S.S.S.S.S.",
"S.S.S.S.S.Z.S.C.Z.@ 0._ t S.N.S.{ ` w.) ) w.` { S.N.S.t _ 0.@ Z.C.S.Z.S.S.S.S.S.",
"S.S.S.S.S.Z.S.C.M.8 e.+.r Z.8.V.{ ` w.} } w.` { V.8.Z.r +.e.8 M.C.S.Z.S.S.S.S.S.",
"S.S.S.S.S.Z.S.C.N.8 e.` r Z.8.V.{ ` w.} } w.` { V.8.Z.r ` e.8 N.C.S.Z.S.S.S.S.S.",
"S.S.S.S.S.Z.S.C.N.@ u.+.r Z.8.V.{ ` w.) ) w.` { V.8.Z.r +.u.@ N.C.S.Z.S.S.S.S.S.",
"S.S.S.S.S.S.Z.Z.Z.9 t._ P C.8.V.{ ` w.} } w.` { V.8.C.P _ t.9 Z.Z.Z.S.S.S.S.S.S.",
"S.S.S.S.S.S.S.S.S.C.9 Y S.N.B.Z.{ ` w.) ) w.` { Z.B.N.S.Y 9 C.S.S.S.S.S.S.S.S.S.",
"S.S.S.S.S.S.S.S.Z.S.S.S.S.S.S.S.{ ` w.} } w.` { S.S.S.S.S.S.S.Z.S.S.S.S.S.S.S.S.",
"S.S.S.S.S.S.S.S.S.Z.Z.Z.S.Z.S.S.T r.w.} } w.r.T S.S.Z.S.Z.Z.Z.S.S.S.S.S.S.S.S.S.",
"S.S.S.S.S.S.S.S.S.S.S.S.S.S.Z.S.Z.~ i y y i ~ Z.S.Z.S.S.S.S.S.S.S.S.S.S.S.S.S.S."
};
