/* XPM */
static char *_15a157fc29d4772d557e1ef63a32150YGHpxW0CsaOLJwRV[] = {
/* columns rows colors chars-per-pixel */
"40 26 179 2 ",
"   c #7D3B45",
".  c #612755",
"X  c #6F445E",
"o  c #80464E",
"O  c #84554E",
"+  c #835650",
"@  c #8B5957",
"#  c #8A5759",
"$  c #8D5F5A",
"%  c #8A5656",
"&  c #905E55",
"*  c #94545C",
"=  c #8E6150",
"-  c #8F655A",
";  c #91625E",
":  c #916B5C",
">  c #9F7E55",
",  c #98755C",
"<  c #977B5F",
"1  c #9A7E5D",
"2  c #947659",
"3  c #805D68",
"4  c #936361",
"5  c #9A6664",
"6  c #956963",
"7  c #9A6D65",
"8  c #9F7361",
"9  c #997B60",
"0  c #9B746C",
"q  c #8A6C71",
"w  c #9E7870",
"e  c #A07067",
"r  c #A57B65",
"t  c #A3746D",
"y  c #A8766C",
"u  c #A37B6B",
"i  c #A97E6B",
"p  c #AA7770",
"a  c #A07A70",
"s  c #AC7A76",
"d  c #9F8A5D",
"f  c #A3985F",
"g  c #9E8861",
"h  c #AB836C",
"j  c #A68F6A",
"k  c #A18A64",
"l  c #B1866E",
"z  c #B48D6F",
"x  c #A59B63",
"c  c #A89C61",
"v  c #AF956E",
"b  c #A69868",
"n  c #B9906F",
"m  c #A98275",
"M  c #AB877A",
"N  c #A68174",
"B  c #B18570",
"V  c #B68B74",
"C  c #BC8E77",
"Z  c #B68679",
"A  c #BA847F",
"S  c #B28E7D",
"D  c #BD8C79",
"F  c #B4927C",
"G  c #BF9C7D",
"H  c #BA9873",
"J  c #ABA563",
"K  c #ADAC65",
"L  c #ACA469",
"P  c #AEAD69",
"I  c #B2A56D",
"U  c #B1AD6A",
"Y  c #AFB16A",
"T  c #B3B46B",
"R  c #B5BB6B",
"E  c #B2B166",
"W  c #B4A374",
"Q  c #B4A37C",
"!  c #B9BA74",
"~  c #C3947B",
"^  c #C39D7B",
"/  c #C5A17C",
"(  c #C9A47E",
")  c #CFAA7F",
"_  c #D8B27F",
"`  c #B7C06C",
"'  c #B9C56D",
"]  c #BCCC6F",
"[  c #BFD16F",
"{  c #BDCD70",
"}  c #BBC470",
"|  c #BFD370",
" . c #C0D470",
".. c #B78881",
"X. c #A99388",
"o. c #AE988C",
"O. c #B29481",
"+. c #BE9786",
"@. c #B69A84",
"#. c #B69889",
"$. c #BA9D89",
"%. c #B99985",
"&. c #BBA38D",
"*. c #BEA591",
"=. c #BFA890",
"-. c #BDAA98",
";. c #C08E87",
":. c #C3918A",
">. c #C6998C",
",. c #CE9A92",
"<. c #DC9F9D",
"1. c #CDA781",
"2. c #CEA981",
"3. c #C3A38E",
"4. c #C7AA8A",
"5. c #D2AD83",
"6. c #D6B287",
"7. c #DAB584",
"8. c #DEB886",
"9. c #D1B089",
"0. c #DAB589",
"q. c #DDBA8A",
"w. c #C7A993",
"e. c #CFAC97",
"r. c #D6A39C",
"t. c #DBA49E",
"y. c #D7A99E",
"u. c #DBA89F",
"i. c #C6B39C",
"p. c #CAB39B",
"a. c #DDBE92",
"s. c #D2B19C",
"d. c #D6BD9D",
"f. c #E1BB87",
"g. c #E1BE8D",
"h. c #E0BF91",
"j. c #DFA2A0",
"k. c #CFBCA1",
"l. c #D4BBA1",
"z. c #E3AAA5",
"x. c #E6AFA9",
"c. c #E6B2AA",
"v. c #EAB5AD",
"b. c #EABAAF",
"n. c #EABDB0",
"m. c #F0BDB2",
"M. c #E3C18E",
"N. c #E3C292",
"B. c #E2C599",
"V. c #E3C89E",
"C. c #D4C1A5",
"Z. c #D8C3A4",
"A. c #DFC5AC",
"S. c #DDCCAD",
"D. c #D3C5AA",
"F. c #DFCFB3",
"G. c #E6CDA4",
"H. c #E1CBAC",
"J. c #EAD0A5",
"K. c #EAD3AC",
"L. c #EEC4B4",
"P. c #EDCBB6",
"I. c #E3D2B3",
"U. c #EEDBB5",
"Y. c #EDDDBB",
"T. c #F1DDBD",
"R. c #EFE0BE",
"E. c #F1E1BD",
"W. c #F8E6BD",
"Q. c #F6DBC0",
"!. c #F8DFC2",
"~. c #F3E5C2",
"^. c #F6E9C5",
"/. c #F8EBC6",
"(. c #F6EAC8",
"). c #FAEDC9",
"_. c #F9EDC9",
"`. c #F9E2C4",
"'. c #FDF4CC",
/* pixels */
" . . . . . . . . . . . . . . . . . . . . . . . . . . . . . . . . . . . . . . . .",
" . . . . . . . . . . . . . . . . . . . . . . .` R ]  . . .` R  . . . . . . . . .",
" . . . . . . . . . . . . . . . . . . . . . .{ S Z P  . .] p +.}  . . . . . . . .",
" . . . . . . . . . . . . . . . . . . . . .] O.R.w.K  . .] m Y.p.J  . . . . . . .",
" . . . . . . . . . . . . . . . . .' c R  .] 3./.*.= T R d w ~.l.>  . . .K J [  .",
" . . . . . . . . . .|  .| | |  .| Q s.O.| E S U.4.r V V i F R.H.W |  .{ 3.e.!  .",
" . . . . . . . . . .k 5 ; ; ; @ 6 I.).Y.u o u 0.q.q.q.q.7.a.E._.I.6   $.(._.k.c ",
" . . . . . . .` x L / 5.2.2.H.p.6 I.'.~.I.F.S.q.q.g.M.q.7.q.T._./.I.N @./.'.C.1 ",
" . . . . . .{ v ~ ^ q.M.g.q.W.S.% A.Q.T._.^.K.q.q.5.G 5.N.G.~.F.S._.O.m T.!.s., ",
" . . . . . .7 6.M.q.q.q.q.q.E.S.7 r.x.c.Y.G.7.q.g.G X ( K.(./.o.q ~.&.s c.v.>.1 ",
" . . . . . .7 5.g.q.7._ a.U.~.~.I.M * 5 0 ^ 8.7.f.n . Z.~.~./.X.3 ~.E.l.t A T  .",
" . . . . .U 6 ) 8.q.G.G.K.~.~.(./.k.&.=.&.d.J.G.J.Z.-.Y._.~.(.D.i.~.'.S.O J  . .",
" . . . .U y ; 9.N.B.~.(.~.~.~.~.E.W.(././.(.(.(.~.(./.~.T.~.T.~.~.~.~.A.:  . . .",
" . . .g ( ( 4 S.~.E.~.~.~.~.(.U.a.q.K.(.~.(.(.~.~.~.~.L.b.n.b.b.b.n.L.y.:  . . .",
" .| T ( 5.l 6 I._.~.~.~.~.~.K.B.7.7.a.J.~.C.p.(.(.T.P.b.z.j.c.v.x.j.v.r.:  . . .",
" .R D 0.I 2 6 I./.~.~.~.~.~.G.q.q.q.q.B.~.i.M I.~.T.c.v.z.t.c.b.c.<.v.u.-  . . .",
" .` t e | | 7 I._.~.~.~.~.~.~.K.7._ G.~.~.(.S.6 S.`.v.v.v.v.v.b.v.v.m.u.$  . . .",
" .| ] [  . .; d.J.G.G.V.J.~.(.~.U.U.E.(.(._.Y.^ @.#...;.:.:.:.:.:.:.,.W |  . . .",
" . . . . .' h 5.8.7.7.7.h.U.U.U.T.T.Y.U.U.Y.K.N.n & + c K J J J J J f ]  . . . .",
" . . . .P C q.q.q.q.q.q.q.q.q.q.q.q.q.q.q.q.q.q.g.1.: |  . . . . . . . . . . . .",
" . . .T H 0.q.M.5.B V h h r r r h l l h r 8 z q.g.0.( I ]  . . . . . . . . . . .",
" . . .5 0.N.q.6.W P Y < 4 0 a 0 # L k 4 0 0 N ( 0.M.g.~ P  . . . . . . . . . . .",
" . . .9 / g.6.u R  . .` t $.3.F 9 | ] 7 %.3.O.: / g.6.i R  . . . . . . . . . . .",
" . . . .L C i ]  . . . .{ t Z b |  . .] 0 Z j | I C i ]  . . . . . . . . . . . .",
" . . . .] Y R  . . . . . .R T ]  . . . .' T ]  .] Y R  . . . . . . . . . . . . .",
" . . . . . . . . . . . . . . . . . . . . . . . . . . . . . . . . . . . . . . . ."
};
