/* XPM */
static char *_9d9752140934348f6350a0d89029a66pWLs1i9piCwi9dkS[] = {
/* columns rows colors chars-per-pixel */
"40 40 247 2 ",
"   c #87B462",
".  c #86B362",
"X  c #86B462",
"o  c #86B361",
"O  c #83AE5E",
"+  c #83AF5F",
"@  c #7CA95D",
"#  c #7BA95D",
"$  c #7FAC5E",
"%  c #83AE60",
"&  c #82AE5E",
"*  c #81AD5E",
"=  c #81AE5E",
"-  c #83AD5E",
";  c #86B060",
":  c #7FAA5D",
">  c #7AA75C",
",  c #76A159",
"<  c #85B664",
"1  c #7FAD5F",
"2  c #9EC467",
"3  c #9FC567",
"4  c #9FC467",
"5  c #A2C668",
"6  c #91BA64",
"7  c #7BAB5F",
"8  c #82B060",
"9  c #7FAD60",
"0  c #89B562",
"q  c #A1C668",
"w  c #85B160",
"e  c #82B363",
"r  c #74A058",
"t  c #7DA85D",
"y  c #7FA95C",
"u  c #7BA75C",
"i  c #A8CC6A",
"p  c #9FC063",
"a  c #9ABC60",
"s  c #9CBB60",
"d  c #A7C564",
"f  c #A6C563",
"g  c #A7C664",
"h  c #A0C061",
"j  c #9AB960",
"k  c #9ABA60",
"l  c #9DBD61",
"z  c #A8C664",
"x  c #9EBD61",
"c  c #99BB60",
"v  c #A0BF63",
"b  c #95BD65",
"n  c #81B061",
"m  c #7DA65C",
"M  c #8AB663",
"N  c #9FBF62",
"B  c #A7C464",
"V  c #A5C363",
"C  c #A8C564",
"Z  c #A2C162",
"A  c #A8C465",
"S  c #A7C465",
"D  c #A6C364",
"F  c #B9CF6D",
"G  c #AAC666",
"H  c #A9C565",
"J  c #AFC968",
"K  c #B3CB6A",
"L  c #9FBF61",
"P  c #AAC665",
"I  c #B4CC6A",
"U  c #BFD36F",
"Y  c #BED36F",
"T  c #B7CE6C",
"R  c #A1C062",
"E  c #A4C263",
"W  c #A3C262",
"Q  c #A6C464",
"!  c #A4C363",
"~  c #A1C162",
"^  c #89B462",
"/  c #7AA55A",
"(  c #87B461",
")  c #7CA85C",
"_  c #A0C668",
"`  c #A2C062",
"'  c #BCD16E",
"]  c #B2CB6A",
"[  c #BDD26F",
"{  c #C2D571",
"}  c #C1D571",
"|  c #BDD26E",
" . c #BED26F",
".. c #B2CB69",
"X. c #C6D873",
"o. c #B1CA69",
"O. c #BFD370",
"+. c #BBD16E",
"@. c #BAD06D",
"#. c #B5CD6B",
"$. c #A7C565",
"%. c #80AC5E",
"&. c #7AA45B",
"*. c #87B362",
"=. c #85B161",
"-. c #7CA55A",
";. c #72A059",
":. c #A1BF62",
">. c #C1D570",
",. c #C3D672",
"<. c #B8CF6C",
"1. c #B6CD6B",
"2. c #C0D470",
"3. c #C3D671",
"4. c #B6CE6B",
"5. c #BFD470",
"6. c #C1D470",
"7. c #A3C263",
"8. c #93B660",
"9. c #79A259",
"0. c #84B060",
"q. c #82AD5E",
"w. c #86B765",
"e. c #91B35E",
"r. c #A8C565",
"t. c #BCD26E",
"y. c #A9C665",
"u. c #83B262",
"i. c #7EA85C",
"p. c #7EAC5F",
"a. c #B9D06D",
"s. c #C2D671",
"d. c #ABC666",
"f. c #A2C262",
"g. c #A2C667",
"h. c #7AA65C",
"j. c #A6C463",
"k. c #A7C364",
"l. c #B0C969",
"z. c #B2CA69",
"x. c #A5C463",
"c. c #7BA75B",
"v. c #A5C264",
"b. c #79A95E",
"n. c #80AA5C",
"m. c #98BF65",
"M. c #7CA85B",
"N. c #AAC865",
"B. c #A7CB69",
"V. c #7AA65B",
"C. c #A9C765",
"Z. c #A3C768",
"A. c #7AA75B",
"S. c #C1D471",
"D. c #B3CC6A",
"F. c #A8CB69",
"G. c #79A65B",
"H. c #90BA64",
"J. c #A0C062",
"K. c #96BD64",
"L. c #A4C262",
"P. c #7DAB5F",
"I. c #7FAA5C",
"U. c #B5CC6B",
"Y. c #C4D772",
"T. c #A6C968",
"R. c #C5D772",
"E. c #ACC767",
"W. c #A4C463",
"Q. c #A6CA69",
"!. c #A6C969",
"~. c #85B261",
"^. c #A7CA69",
"/. c #A2C768",
"(. c #A0C667",
"). c #C4D672",
"_. c #B8CE6C",
"`. c #7BAA5E",
"'. c #94BC64",
"]. c #7DA85C",
"[. c #A9CC69",
"{. c #A7C563",
"}. c #B0CA68",
"|. c #7DAA5D",
" X c #99C066",
".X c #8AB462",
"XX c #7EA95C",
"oX c #85AE60",
"OX c #78A95E",
"+X c #99B85F",
"@X c #A6C564",
"#X c #7FAC5D",
"$X c #A5C364",
"%X c #A8CA69",
"&X c #A0C467",
"*X c #A5C263",
"=X c #89B361",
"-X c #7EA95D",
";X c #85B564",
":X c #B0C968",
">X c #86B160",
",X c #739F58",
"<X c #A3C163",
"1X c #B6CE6C",
"2X c #AEC868",
"3X c #A1C161",
"4X c #98B960",
"5X c #77A158",
"6X c #C5D873",
"7X c #81AC5E",
"8X c #7AA55B",
"9X c #A2C163",
"0X c #ADC867",
"qX c #A3C162",
"wX c #88B361",
"eX c #7AA45A",
"rX c #7BA65A",
"tX c #8CB662",
"yX c #AACB68",
"uX c #A3C364",
"iX c #9EBF61",
"pX c #A1C163",
"aX c #A2C362",
"sX c #AAC765",
"dX c #9FBE61",
"fX c #A8C665",
"gX c #9EBE62",
"hX c #A0BF62",
"jX c #ACCD69",
"kX c #92B963",
"lX c #78A259",
"zX c #85B463",
"xX c #A1C567",
"cX c #7AAA5E",
"vX c #A6CA68",
"bX c #9CC266",
"nX c #81AE60",
"mX c #A4C868",
"MX c #8BB562",
"NX c #8FB863",
"BX c #7AA95E",
"VX c #99C065",
"CX c #77A058",
"ZX c #7CA65B",
"AX c #86B262",
"SX c #7CA75B",
"DX c #7DA95C",
/* pixels */
"        . X                                                       X   .         ",
"      .     o O + @ # # # @ # $ % & # # # # O * # @ # # @ # = - ;       .       ",
"    X   : > , < 1 2 3 4 3 2 5 6 7 8 4 4 3 3 9 0 5 2 4 4 2 q w e r t y     .     ",
"  .   u   i p a s d f f f f g h j s f g f g k l g f f d d z x c v b n m         ",
".   : M N d B V C Z A S D F D G V H Z J K L P B I U Y T R E W Q Q ! ~ ^ /   (   ",
"X   ) _ Q E ` B ' ] [ ' { } | [ ]  .' ..X.o.O.[ +.} { @.#.T H E A Z $.%.&.  *.  ",
"  =.-.;.:.W D U >.,.<.T } } @.1.,.2.2.,.#.[ 3.F 4.{ 5.6.} } } 1.O.D 7.8.9.0.  X ",
"  q.w.e.E r.O.>.5.5.} } 2.2.} { O.2.5.>.<.t.2.} { 2.2.2.2.2.2.{ } Y y.7.u.i.  o ",
"  + p.x B E #.} 2.2.2.6.2.2.2.5.2.2.2.2.{ 6.2.2.2.2.} a...s.5.O.[ ,.d.f.g.h.    ",
"  @ 4 j.k.>.2.2.2.6.| ' 6.2.2.2.2.2.2.2.2.2.2.2.2.2.2.2.O.2.} +.l.,.z.x.g.c.    ",
"  # 3 f v.| <.} 5.{ T 4.{ 2.2.2.2.2.2.2.2.2.2.2.2.2.2.2.2.2.2.2.>.2.@.~ b.n.    ",
"  # 4 f #.' T { 2.2.} } 2.2.2.2.2.2.2.2.2.2.2.2.2.2.2.2.2.2.2.2.5.} 1.x.m.M.    ",
"  # 4 f Y { s.5.2.2.2.2.2.2.2.2.2.2.2.2.2.2.2.2.2.2.2.2.2.2.2.2.2.2.{ N.B.V.    ",
"  @ 2 f G U | 6.2.5.2.2.2.2.2.2.2.2.2.2.2.2.2.2.2.2.2.2.2.2.{ 2.2.5.} C.Z.A.    ",
"  # q g S.F D.{ 2.s.2.2.2.2.2.2.2.2.2.2.2.2.2.2.2.2.2.2.2.6.<.O.2.s.' z F.G.    ",
"  $ H.J.I ,.} 2.U I >.2.2.2.2.2.2.2.2.2.2.2.2.2.2.2.2.2.2.>.D.Y } F E 7.K.M.    ",
"  % 7 j L.o.{ 2.O.T 6.2.2.2.2.2.2.2.2.2.2.2.2.2.2.2.2.2.2.2.s.2.2.t.P J.P.I.    ",
"  & 8 s B [ U U 2.{ 2.2.2.2.2.2.2.2.2.2.2.2.2.2.2.2.2.2.2.2.5.O.{ U.E Z w y     ",
"  # 4 f G Y.I T { O.2.2.2.2.2.2.2.2.2.2.2.2.2.2.2.2.2.2.2.2.2.2.Y.I Z d T.V.    ",
"  @ 2 f S.2.>.>.2.2.2.2.2.2.2.2.2.2.2.2.2.2.2.2.2.2.2.2.2.2.6.[ 1.R.E.W.Q.V.    ",
"  # q g J 6.2.2.2.2.2.2.2.2.2.2.2.2.2.2.2.2.2.2.2.2.2.2.2.2.6.[ 1.,.d.W.!.V.    ",
"  = ~.s B } 2.>.2.2.2.2.2.2.2.2.2.2.2.2.2.2.2.2.2.2.2.2.2.5.2.6.} } E.x.^.V.    ",
"  & 8 s H ' >.' U 2.2.2.2.2.2.2.2.2.2.2.2.2.2.2.2.2.2.5.s.o.@.} 3.#.R f /.A.    ",
"  # (.z L o.).o.' } 2.2.2.2.2.2.2.2.2.2.2.2.2.2.2.2.2.2.2.2.6. ._.3.I J.`.n.    ",
"  @ 4 f #.3.5.{ 6.2.2.2.2.2.2.2.2.2.2.2.2.2.2.2.2.2.2.2.2.2.6.| #.} { $.'.].    ",
"  @ 2 f J 2.2.5.2.2.2.2.2.2.2.2.2.2.2.2.2.2.2.2.2.2.2.2.2.2.2.6.{ O.2.N.[.G.    ",
"  # (.{.T { 2.2.2.2.2.2.2.2.2.2.2.2.2.2.2.2.2.2.2.2.2.2.2.2.{ 2.U ,.}.h 0.I.    ",
"  |. X! D @.6.2.{ 2.2.2.2.2.2.2.2.2.2.2.2.2.2.2.2.2.2.2.2.2.a.O.6.[ r.~ .XXX    ",
"  oXOX+XB #.} 2.#.5.2.2.2.2.2.2.2.2.2.2.2.2.2.2.2.2.2.2.2.} ..Y } a.D @XF.G.    ",
"  #Xb W E #.} 2.1.O.>.6.2.2.2.2.2.2.2.2.2.2.2.2.2.2.2.2.2.2.s.2.} F $X@X%XV.    ",
"  # &Xz *Xt.} 5.{ { 1.#.{ 2.5.O.2.2.2.2.2.2.2.O.2.2.2.2.6.6.5.>.2.Y G J.=X-X    ",
"  q.;Xc y.t.' 6.O.{ U U 2.{ <.K { 2.{ 2.2.2.' :X{ 2.2.6.[ [ 2.+.2.2.E.R u.y   o ",
"  >X,XN @X<X<.>.6.1X6.2.2.2.2.{ 6.Y T >.O.{ 2.} } 5.2.{ 1.T 6.2XY...3X4X5X*   ( ",
"X   t b f.A ' Y.K 1.{ >.6.O.s.F ' { I 2.{ #.{ ' F s.O.2.3.6.} 6XY H *X7X8X  *.  ",
"    y n 9XL.Q J E E.<.1.F 3.' *XH 2X{ { #.Z 0XH <X' 3.@.I Y.J E.P qXd wXeX  .   ",
".     rXtXyXuXiXpXaXR ! z N.@XJ.J.! C.sXd f.dXf.f g N.d J.fXx.gXhXjXkXlX*.  .   ",
"  .     / &.9.zX0.xXcXm.F.vXbXp.nXg.vXmXF.MXP.NX[.mXvX4 BXVX^.X CXZXeXAX        ",
"    .       0.i.: c.n.M.V.V.SXI.I.c.V.A.V.XXn.DXG.A.V.c.n.M.G.y *               ",
"        ( *.                                                      *.. .         ",
"            X o                                               o (               "
};
