/* XPM */
static char *_83c373dcc9945a7962c038e5666faf4NAbjHkPL8GbbF51a[] = {
/* columns rows colors chars-per-pixel */
"40 38 215 2 ",
"   c #C0D470",
".  c #C0D471",
"X  c #C0D370",
"o  c #C0D170",
"O  c #BFCF6F",
"+  c #BECD6D",
"@  c #BAB766",
"#  c #B7A862",
"$  c #B8A762",
"%  c #B8AA62",
"&  c #B7A762",
"*  c #BDC56C",
"=  c #B8A062",
"-  c #B4875D",
";  c #B3865D",
":  c #B48A5D",
">  c #B48B5D",
",  c #B5885D",
"<  c #BECE6E",
"1  c #BEC56C",
"2  c #BFB56F",
"3  c #C3A373",
"4  c #DCB185",
"5  c #DEB386",
"6  c #D4AA80",
"7  c #BEC66D",
"8  c #C0D36F",
"9  c #BFD06F",
"0  c #B8A263",
"q  c #C3A575",
"w  c #D2B58B",
"e  c #E5C79D",
"r  c #E6C89E",
"t  c #E1C299",
"y  c #E0C299",
"u  c #BBB766",
"i  c #BFCD6E",
"p  c #B7A761",
"a  c #B4885E",
"s  c #DBB185",
"d  c #E4C69D",
"f  c #EBD3AA",
"g  c #EDD5AC",
"h  c #EAD1A8",
"j  c #E9D1A8",
"k  c #ECD4AB",
"l  c #C0CE6F",
"z  c #BFCE6F",
"x  c #B8A661",
"c  c #B4865C",
"v  c #E2B78A",
"b  c #E9CCA2",
"n  c #EFD8AF",
"m  c #EBD2A9",
"M  c #B7A561",
"N  c #BFCE6E",
"B  c #B7A962",
"V  c #B68B5E",
"C  c #D7AF84",
"Z  c #E3C69D",
"A  c #ECD5AC",
"S  c #E8CFA7",
"D  c #E8CFA6",
"F  c #B8A862",
"G  c #B2885D",
"H  c #D1A67C",
"J  c #DAB990",
"K  c #E3C89F",
"L  c #E7CDA4",
"P  c #B6A862",
"I  c #BFCD6F",
"U  c #B6A663",
"Y  c #AE835C",
"T  c #C6976F",
"R  c #CAA278",
"E  c #D4B388",
"W  c #E0C399",
"Q  c #E9D0A7",
"!  c #EDD6AD",
"~  c #AD825C",
"^  c #B4A463",
"/  c #AB7E5A",
"(  c #BE8A63",
")  c #BD8E61",
"_  c #C79F71",
"`  c #D7B78C",
"'  c #E5CAA1",
"]  c #C79E70",
"[  c #B2A463",
"{  c #BECD6E",
"}  c #BECD6F",
"|  c #A97D5A",
" . c #BD8962",
".. c #BD8D60",
"X. c #C4996A",
"o. c #CFAB7E",
"O. c #D8B98E",
"+. c #DCBE95",
"@. c #D8B88E",
"#. c #C08D66",
"$. c #C19468",
"%. c #C59C6D",
"&. c #C8A072",
"*. c #C9A275",
"=. c #CAA477",
"-. c #C2956A",
";. c #C59B6C",
":. c #C19566",
">. c #C19465",
",. c #C59B6D",
"<. c #C69B6C",
"1. c #C49A6A",
"2. c #C69C6C",
"3. c #C49A6C",
"4. c #C08E66",
"5. c #C2966A",
"6. c #C49B6C",
"7. c #C1966A",
"8. c #BB8F66",
"9. c #B98D64",
"0. c #C08E67",
"q. c #C3976B",
"w. c #B0815E",
"e. c #AC7C5A",
"r. c None",
"t. c #C0D470",
"y. c #C18E67",
"u. c #C4986B",
"i. c #C3996C",
"p. c #B88C64",
"a. c #AA7959",
"s. c #A47155",
"d. c #B88C63",
"f. c #C0D470",
"g. c #C0D470",
"h. c #C18F67",
"j. c #C5996C",
"k. c #AB7A5A",
"l. c #A57255",
"z. c #AC7C5B",
"x. c #A77557",
"c. c #AB7E5B",
"v. c #BF8C65",
"b. c #C09368",
"n. c #BF9468",
"m. c #B68962",
"M. c #AC7B5A",
"N. c #B3A463",
"B. c #B5A564",
"V. c #AC7F5B",
"C. c #BD8A64",
"Z. c #BB8D64",
"A. c #B3855F",
"S. c #AB7B5A",
"D. c #A87658",
"F. c #AB7F5B",
"G. c #B3A564",
"H. c #B4A563",
"J. c #BD8964",
"K. c #B88962",
"L. c #B68861",
"P. c #B1825E",
"I. c #A97758",
"U. c #B3A164",
"Y. c #A97858",
"T. c #C69068",
"R. c #BC8C64",
"E. c #B68961",
"W. c #B1835D",
"Q. c #AA7858",
"!. c #B3A464",
"~. c #AB7D5A",
"^. c #C08B65",
"/. c #BA8B63",
"(. c #B2845E",
"). c #A87758",
"_. c #B9B668",
"`. c #B39D62",
"'. c #B28F60",
"]. c #B68B62",
"[. c #C09067",
"{. c #B98862",
"}. c #A97658",
"|. c #B29D62",
" X c #BFD36F",
".X c #BCC56B",
"XX c #BAAE68",
"oX c #B89465",
"OX c #CC9A6D",
"+X c #C28F67",
"@X c #A87858",
"#X c #C38F67",
"$X c #BDCD6E",
"%X c #BFC76E",
"&X c #BCA769",
"*X c #B78C62",
"=X c #AB7959",
"-X c #BFC26D",
";X c #BBAC68",
":X c #B29461",
">X c #AC7E5B",
",X c #B47F5E",
"<X c #BEC96D",
"1X c #AC805B",
"2X c #BC8662",
"3X c #BECA6E",
"4X c #B6AB66",
"5X c #BE8864",
"6X c #BECE6F",
"7X c #B6A864",
"8X c #BD8763",
"9X c #BFCF6E",
"0X c #B6A664",
"qX c #BD8663",
"wX c #B4A765",
/* pixels */
"                        .                             .                         ",
"                            X o O O O O O O O O o X                             ",
"                    .       + @ # $ % % % % $ & @ +       .                     ",
"                            * = - ; : > > > ; , = *                             ",
"                      X < 1 2 3 4 5 6 6 6 6 5 4 3 2 7 + 8                       ",
"                      9 @ 0 q w e r t y y t r e w q 0 u 9                       ",
"                      i p a s d f g h j j j g k d s a p l                       ",
"                      z x c v b n n f m m f n n b v c M N                       ",
"                      l B V C Z A k S D D D k A Z C V % z                       ",
"                      z F G H J K L D j j D L K J H G P z                       ",
"                      I U Y T R E W Q ! ! Q W E R T ~ U I                       ",
"                      I ^ / ( ) _ ` ' f f ' ` ] ) ( / [ {                       ",
"                      } ^ |  ...X.o.O.+.+.@.o.X... .| ^ {                       ",
"                      I ^ / #.$.%.&.*.=.=.*.&.%.$.#./ ^ {                       ",
"                      I ^ / #.-.;.X.:.>.>.:.X.;.-.#./ [ {                       ",
"                      I ^ / #.-.,.<.1.1.1.1.2.,.-.#./ ^ {                       ",
"                      I ^ / #.-.,.%.3.3.3.3.%.,.-.#./ [ {                       ",
"                      I ^ / 4.5.6.7.8.9.9.8.7.6.5.4./ [ {                       ",
"                      I ^ / 0.q.3.8.w.e.e.w.8.3.q.0./ [ {                       ",
"        r.r.t.r.      I ^ / y.u.i.p.a.s.s.a.d.i.u.y./ [ {                       ",
"  r.f.g.              I ^ / h.j.3.9.k.l.l.k.9.3.j.h./ [ {                       ",
"                      I ^ / y.u.i.9.z.x.x.z.9.i.u.y./ [ {                       ",
"                      I ^ c.v.b.n.m.M.x.x.M.m.n.b.v./ N.{                       ",
"                      I B.V.C.Z.9.A.S.D.D.S.A.9.Z.C.F.G.}                       ",
"                      I H.c.J.K.L.P.k.I.I.k.P.L.K.J.c.H.I                       ",
"                      i U.Y.T.R.E.W.k.I.I.k.W.E.R.T.Q.U.{                       ",
"                      I !.~.^./.m.(.k.).).k.(.m./.^.~.!.I                       ",
"                      9 _.`.'.].[.{.M.}.}.M.{.[.].'.|._.9                       ",
"                       X< .XXXoXOX+XM.@X@XM.#XOXoXXX.X$X                        ",
"                            %X&X*XP.S.=X=XS.P.*X&X%X                            ",
"                            o -X;X:X>X,X,X>X:X;X-Xo                             ",
"                                <XB.1X2X2XV.B.3X                                ",
"                        .         4XF.5X5X1X4X        .                         ",
"                                6X7X1X8X8X1X7X9X                                ",
"                                I 0X1XqXqX1XwX}                                 ",
"                                I 0X1XqXqX1XwX}                                 ",
"                                I 0X1XqXqX1XwX}                                 ",
"                                I 0X1XqXqX1XwX}                                 "
};
